<svg width="100" height="100" viewBox="0 0 100 100" fill="none" xmlns="http://www.w3.org/2000/svg">
<path d="M16.2611 3.25122H83.739C90.8682 3.25122 96.7487 9.13232 96.7487 16.2604V83.7394C96.7487 90.8675 90.8682 96.7486 83.739 96.7486H16.2611C9.13184 96.7486 3.25136 90.8675 3.25136 83.7394V16.2622C3.24515 12.813 4.61319 9.50301 7.05376 7.0622C9.49434 4.62138 12.807 3.25026 16.2611 3.25122Z" fill="#E7A918"/>
<path d="M92.853 46.1042V82.9535C92.8588 85.5783 91.8292 88.0974 89.9915 89.9547C88.1539 91.812 85.6593 92.8549 83.0585 92.8529H16.9399C14.3398 92.8544 11.8459 91.8116 10.0087 89.9547C8.17147 88.0978 7.1419 85.5795 7.14718 82.9554V67.5833C10.7587 28.2045 47.9849 68.0753 65.2788 68.0753C79.0316 68.0024 87.2262 57.3358 92.853 46.1042" fill="#6E2616"/>
<path d="M17.0022 7.14697H83.0666C88.4794 7.14697 92.8531 11.537 92.8531 16.9706V31.7414C89.7984 72.5662 52.1175 31.8101 34.6988 31.8101C21.0276 31.8101 12.8379 42.748 7.14716 53.8957V16.9706C7.21752 11.6057 11.6579 7.14878 17.0022 7.14878" fill="#6E2616"/>
</svg>
