<svg width="80" height="80" viewBox="0 0 80 80" fill="none" xmlns="http://www.w3.org/2000/svg">
<g clip-path="url(#clip0_453_653)">
<path fill-rule="evenodd" clip-rule="evenodd" d="M60 80L20 80C14.6957 79.9998 9.6088 77.8926 5.85812 74.1419C2.10744 70.3912 0.000230749 65.3043 -1.19183e-06 60L-3.97276e-07 20C0.000231754 14.6957 2.10744 9.6088 5.85812 5.85812C9.6088 2.10744 14.6957 0.000232338 20 3.97276e-07L60 1.19183e-06C65.3043 1.29719e-06 70.3914 2.10714 74.1421 5.85787C77.8929 9.60859 80 14.6957 80 20L80 60C80 65.3043 77.8929 70.3914 74.1421 74.1421C70.3914 77.8929 65.3043 80 60 80Z" fill="#317FF5"/>
</g>
<path d="M23.0041 32.0076C21.3476 32.0076 20.0048 33.3504 20.0048 35.0069V49.0036C20.0048 50.66 21.3476 52.0028 23.0041 52.0028C24.6605 52.0028 26.0034 50.66 26.0034 49.0036V35.0069C26.0034 33.3504 24.6605 32.0076 23.0041 32.0076Z" fill="white"/>
<path d="M56.996 32.0076C55.3395 32.0076 53.9967 33.3504 53.9967 35.0069V49.0036C53.9967 50.66 55.3395 52.0028 56.996 52.0028C58.6525 52.0028 59.9953 50.66 59.9953 49.0036V35.0069C59.9953 33.3504 58.6526 32.0076 56.996 32.0076Z" fill="white"/>
<path d="M50.9974 32.0076H29.0026C28.4505 32.0076 28.0028 32.4552 28.0028 33.0074V49.0036C28.0023 51.3794 29.6741 53.4272 32.0019 53.9024V61.0007C32.0019 62.6572 33.3447 64 35.0012 64C36.6577 64 38.0005 62.6572 38.0005 61.0007V54.0024H41.9996V61.0007C41.9996 62.6572 43.3424 64 44.9989 64C46.6553 64 47.9982 62.6572 47.9982 61.0007V53.9024C50.326 53.4272 51.9977 51.3794 51.9973 49.0036V33.0074C51.9972 32.4552 51.5495 32.0076 50.9974 32.0076Z" fill="white"/>
<path d="M47.2683 20.1543L49.7057 17.7189C50.1029 17.3352 50.1138 16.7024 49.7303 16.3052C49.3467 15.9081 48.7138 15.8971 48.3166 16.2806C48.3083 16.2887 48.3001 16.2968 48.292 16.3052L45.4527 19.1446C41.9752 17.634 38.0268 17.634 34.5493 19.1446L31.71 16.3032C31.3128 15.9196 30.6799 15.9306 30.2963 16.3278C29.9221 16.7152 29.9221 17.3294 30.2963 17.7168L32.7317 20.1542C29.7627 22.1188 27.9845 25.4481 28.0028 29.0081C28.0028 29.5603 28.4505 30.0079 29.0026 30.0079H50.9975C51.5497 30.0079 51.9973 29.5603 51.9973 29.0081C52.0156 25.4482 50.2374 22.1188 47.2683 20.1543Z" fill="white"/>
<path d="M35.0013 26.0089C35.5534 26.0089 36.0011 25.5612 36.0011 25.0091C36.0011 24.4569 35.5534 24.0093 35.0013 24.0093C34.4491 24.0093 34.0015 24.4569 34.0015 25.0091C34.0015 25.5612 34.4491 26.0089 35.0013 26.0089Z" fill="#317FF5"/>
<path d="M44.9988 26.0089C45.551 26.0089 45.9986 25.5612 45.9986 25.0091C45.9986 24.4569 45.551 24.0093 44.9988 24.0093C44.4466 24.0093 43.999 24.4569 43.999 25.0091C43.999 25.5612 44.4466 26.0089 44.9988 26.0089Z" fill="#317FF5"/>
<defs>
<clipPath id="clip0_453_653">
<rect width="80" height="80" fill="white"/>
</clipPath>
</defs>
</svg>
