<svg width="88" height="88" viewBox="0 0 88 88" fill="none" xmlns="http://www.w3.org/2000/svg">
<circle cx="44" cy="44" r="44" fill="#FFD161"/>
<path opacity="0.6" d="M54.3733 28.5293C56.7007 28.5293 58.5875 30.4161 58.5875 32.7435V57.9697C58.5875 60.2972 56.7007 62.184 54.3733 62.184V28.5293Z" fill="#555555"/>
<path fill-rule="evenodd" clip-rule="evenodd" d="M48.2061 25.8782V15.0651C48.2061 14.4659 47.7204 13.9802 47.1212 13.9802C46.8629 13.9802 46.6179 14.0953 46.453 14.2943L45.6336 15.2828C45.4107 15.5517 45.0063 15.5742 44.755 15.3317L43.6232 14.2394C43.451 14.0731 43.2209 13.9802 42.9815 13.9802C42.7422 13.9802 42.5121 14.0731 42.3399 14.2394L41.3459 15.1987C41.0092 15.5236 40.4757 15.5236 40.1391 15.1987L39.1451 14.2394C38.9728 14.0731 38.7428 13.9802 38.5034 13.9802C38.264 13.9802 38.034 14.0731 37.8617 14.2394L36.73 15.3317C36.4787 15.5742 36.0742 15.5517 35.8513 15.2828L35.0319 14.2943C34.867 14.0953 34.6221 13.9802 34.3637 13.9802C33.7646 13.9802 33.2789 14.4659 33.2789 15.0651V25.8782L48.2061 25.8782ZM36.2199 20.3353C36.2199 19.5755 36.8359 18.9596 37.5957 18.9596L43.8893 18.9596C44.6491 18.9596 45.2651 19.5755 45.2651 20.3353C45.2651 21.0951 44.6491 21.7111 43.8893 21.7111L37.5957 21.7111C36.8359 21.7111 36.2199 21.0951 36.2199 20.3353Z" fill="#555555"/>
<path fill-rule="evenodd" clip-rule="evenodd" d="M28.1332 23.6397C28.7004 23.2671 29.3278 22.997 30.0584 22.8012L30.059 25.9638H29.5038C28.6179 25.9638 27.8997 26.682 27.8997 27.568C27.8997 28.4539 28.6179 29.1721 29.5038 29.1721L51.7397 29.1721C52.6257 29.1721 53.3439 28.4539 53.3439 27.5679C53.3439 26.682 52.6257 25.9637 51.7397 25.9637H51.4129L51.4134 22.9796C51.905 23.1528 52.3484 23.3693 52.7601 23.6397C53.7021 24.2585 54.5073 25.0637 55.1261 26.0057C56.4807 28.0679 56.4807 30.9253 56.4807 36.6402V52.715C56.4807 58.4299 56.4807 61.2873 55.1261 63.3495C54.5073 64.2914 53.7021 65.0967 52.7601 65.7154C50.698 67.07 47.8405 67.07 42.1257 67.07H38.7676C33.0527 67.07 30.1953 67.07 28.1332 65.7154C27.1912 65.0967 26.386 64.2914 25.7672 63.3495C24.4126 61.2873 24.4126 58.4299 24.4126 52.715V36.6402C24.4126 30.9253 24.4126 28.0679 25.7672 26.0057C26.386 25.0637 27.1912 24.2585 28.1332 23.6397ZM29.5797 37.8623C29.5797 36.1735 29.5797 35.329 29.9598 34.7087C30.1725 34.3616 30.4644 34.0698 30.8115 33.8571C31.4318 33.477 32.2762 33.477 33.9651 33.477H46.9283C48.6172 33.477 49.4616 33.477 50.0819 33.8571C50.429 34.0698 50.7208 34.3616 50.9336 34.7087C51.3137 35.329 51.3137 36.1735 51.3137 37.8623V39.7476C51.3137 41.4364 51.3137 42.2808 50.9336 42.9012C50.7209 43.2483 50.429 43.5401 50.0819 43.7528C49.4616 44.1329 48.6172 44.1329 46.9284 44.1329H33.965C32.2761 44.1329 31.4317 44.1329 30.8114 43.7528C30.4643 43.5401 30.1725 43.2483 29.9598 42.9012C29.5797 42.2808 29.5797 41.4364 29.5797 39.7476V37.8623ZM38.1466 48.3442C38.1466 47.7743 38.6085 47.3124 39.1784 47.3124H41.7152C42.2851 47.3124 42.747 47.7743 42.747 48.3442V49.7203C42.747 50.2902 42.2851 50.7522 41.7152 50.7522H39.1784C38.6085 50.7522 38.1466 50.2902 38.1466 49.7203V48.3442ZM38.1466 54.5321C38.1466 53.9623 38.6085 53.5003 39.1784 53.5003H41.7152C42.2851 53.5003 42.747 53.9623 42.747 54.5321V55.9083C42.747 56.4781 42.2851 56.9401 41.7152 56.9401H39.1784C38.6085 56.9401 38.1466 56.4781 38.1466 55.9083V54.5321ZM38.1466 60.7195C38.1466 60.1497 38.6085 59.6877 39.1784 59.6877H41.7152C42.2851 59.6877 42.747 60.1497 42.747 60.7195V62.0957C42.747 62.6655 42.2851 63.1275 41.7152 63.1275H39.1784C38.6085 63.1275 38.1466 62.6655 38.1466 62.0957V60.7195ZM46.2334 48.3442C46.2334 47.7743 46.6954 47.3124 47.2653 47.3124H49.802C50.3719 47.3124 50.8339 47.7743 50.8339 48.3442V49.7203C50.8339 50.2902 50.3719 50.7522 49.802 50.7522H47.2653C46.6954 50.7522 46.2334 50.2902 46.2334 49.7203V48.3442ZM46.2334 54.5321C46.2334 53.9623 46.6954 53.5003 47.2653 53.5003H49.802C50.3719 53.5003 50.8339 53.9623 50.8339 54.5321V55.9083C50.8339 56.4781 50.3719 56.9401 49.802 56.9401H47.2653C46.6954 56.9401 46.2334 56.4781 46.2334 55.9083V54.5321ZM46.2334 60.7195C46.2334 60.1497 46.6954 59.6877 47.2653 59.6877H49.802C50.3719 59.6877 50.8339 60.1497 50.8339 60.7195V62.0957C50.8339 62.6655 50.3719 63.1275 49.802 63.1275H47.2653C46.6954 63.1275 46.2334 62.6655 46.2334 62.0957V60.7195ZM30.0248 48.3442C30.0248 47.7743 30.4868 47.3123 31.0567 47.3123H33.5934C34.1633 47.3123 34.6253 47.7743 34.6253 48.3442V49.7203C34.6253 50.2902 34.1633 50.7521 33.5934 50.7521H31.0567C30.4868 50.7521 30.0248 50.2902 30.0248 49.7203V48.3442ZM30.0248 54.5321C30.0248 53.9622 30.4868 53.5003 31.0567 53.5003H33.5934C34.1633 53.5003 34.6253 53.9622 34.6253 54.5321V55.9083C34.6253 56.4781 34.1633 56.9401 33.5934 56.9401H31.0567C30.4868 56.9401 30.0248 56.4781 30.0248 55.9083V54.5321ZM30.0248 60.7195C30.0248 60.1496 30.4868 59.6877 31.0567 59.6877H33.5934C34.1633 59.6877 34.6253 60.1496 34.6253 60.7195V62.0956C34.6253 62.6655 34.1633 63.1275 33.5934 63.1275H31.0567C30.4868 63.1275 30.0248 62.6655 30.0248 62.0956V60.7195Z" fill="#555555"/>
<path fill-rule="evenodd" clip-rule="evenodd" d="M48.206 25.8782V15.0651C48.206 14.4659 47.7203 13.9802 47.1211 13.9802C46.8628 13.9802 46.6178 14.0953 46.453 14.2943L45.6335 15.2828C45.4107 15.5517 45.0062 15.5742 44.7549 15.3317L43.6232 14.2394C43.4509 14.0731 43.2209 13.9802 42.9815 13.9802C42.7421 13.9802 42.512 14.0731 42.3398 14.2394L41.3458 15.1987C41.0091 15.5236 40.4756 15.5236 40.139 15.1987L39.145 14.2394C38.9728 14.0731 38.7427 13.9802 38.5033 13.9802C38.2639 13.9802 38.0339 14.0731 37.8616 14.2394L36.7299 15.3317C36.4786 15.5742 36.0741 15.5517 35.8513 15.2828L35.0318 14.2943C34.8669 14.0953 34.622 13.9802 34.3636 13.9802C33.7645 13.9802 33.2788 14.4659 33.2788 15.0651V25.8782L48.206 25.8782ZM36.2198 20.3353C36.2198 19.5755 36.8358 18.9596 37.5956 18.9596L43.8892 18.9596C44.649 18.9596 45.265 19.5755 45.265 20.3353C45.265 21.0951 44.649 21.7111 43.8892 21.7111L37.5956 21.7111C36.8358 21.7111 36.2198 21.0951 36.2198 20.3353Z" fill="white"/>
<g clip-path="url(#clip0_651_156)">
<path fill-rule="evenodd" clip-rule="evenodd" d="M29.5668 42.9129C29.3494 41.9902 29.7925 41.0663 30.589 40.6372C30.2074 38.6722 30.1072 37.3193 30.4064 36.0961C30.8254 34.3828 31.7761 32.8463 33.1221 31.7065C34.6524 30.4108 36.9288 29.8746 41.4817 28.8021L45.7009 27.8082C50.2538 26.7357 52.5302 26.1995 54.4779 26.6759C56.1911 27.0949 57.7277 28.0456 58.8674 29.3916C59.8408 30.5412 60.3855 32.1118 61.051 34.7523C61.8951 34.6763 62.6884 35.2306 62.8884 36.0795L63.876 40.2719C64.0748 41.116 63.6186 41.9614 62.8374 42.2744L66.3224 57.0686C67.3949 61.6215 67.9311 63.8979 67.4547 65.8456C67.0356 67.5588 66.085 69.0954 64.7389 70.2352C63.2087 71.5308 60.9322 72.0671 56.3794 73.1396L52.1602 74.1335C47.6073 75.206 45.3309 75.7422 43.3832 75.2658C41.6699 74.8468 40.1334 73.8961 38.9936 72.55C37.6979 71.0198 37.1617 68.7434 36.0892 64.1905L33.8077 54.5052C32.9232 54.4562 32.1393 53.8333 31.9258 52.9272L31.3986 50.689C31.3457 50.4644 31.3319 50.2399 31.3528 50.0223C31.3945 49.5879 31.5746 49.1817 31.8578 48.8606C32.0051 48.6937 32.1802 48.5498 32.3782 48.4369L31.9759 46.7291C31.7483 46.7165 31.5274 46.6659 31.3211 46.5823C30.9244 46.4214 30.5819 46.1382 30.3506 45.7681C30.2348 45.5828 30.1469 45.3757 30.094 45.1512L29.5668 42.9129ZM33.5531 37.0719C33.2355 38.3704 33.593 39.888 34.308 42.9232L38.0477 58.7986C38.7627 61.8338 39.1202 63.3514 39.984 64.3716C40.7438 65.269 41.7682 65.9027 42.9104 66.1821C44.2088 66.4997 45.7264 66.1422 48.7617 65.4272L55.5454 63.8292C58.5807 63.1142 60.0983 62.7567 61.1185 61.8929C62.0158 61.1331 62.6496 60.1087 62.929 58.9665C63.2466 57.6681 62.8891 56.1505 62.1741 53.1152L58.4344 37.2399C57.7194 34.2046 57.3619 32.687 56.4981 31.6668C55.7383 30.7695 54.7139 30.1357 53.5718 29.8563C52.2733 29.5387 50.7557 29.8962 47.7204 30.6112L40.9367 32.2092C37.9014 32.9242 36.3838 33.2817 35.3637 34.1455C34.4663 34.9053 33.8325 35.9297 33.5531 37.0719Z" fill="#2B73E3"/>
<path fill-rule="evenodd" clip-rule="evenodd" d="M51.256 67.7531C50.4059 67.9534 49.8791 68.8049 50.0794 69.655C50.2796 70.5051 51.1311 71.0319 51.9812 70.8316L55.066 70.105C55.9161 69.9047 56.4429 69.0532 56.2427 68.2031C56.0424 67.353 55.1909 66.8262 54.3408 67.0265L51.256 67.7531Z" fill="white"/>
<path opacity="0.94" d="M34.308 42.923C33.593 39.8878 33.2355 38.3702 33.5531 37.0717C33.8325 35.9295 34.4663 34.9052 35.3637 34.1453C36.3838 33.2815 37.9015 32.924 40.9367 32.209L47.7205 30.611C50.7557 29.896 52.2733 29.5385 53.5718 29.8561C54.714 30.1355 55.7383 30.7693 56.4982 31.6667C57.362 32.6868 57.7195 34.2044 58.4344 37.2397L62.1741 53.115C62.8891 56.1503 63.2466 57.6679 62.929 58.9664C62.6496 60.1085 62.0159 61.1329 61.1185 61.8927C60.0983 62.7565 58.5807 63.114 55.5455 63.829L48.7617 65.427C45.7265 66.142 44.2088 66.4995 42.9104 66.1819C41.7682 65.9025 40.7438 65.2688 39.984 64.3714C39.1202 63.3512 38.7627 61.8336 38.0477 58.7984L34.308 42.923Z" fill="white"/>
</g>
<defs>
<clipPath id="clip0_651_156">
<rect width="44.5433" height="50.0136" fill="white" transform="translate(21 31.2148) rotate(-13.2552)"/>
</clipPath>
</defs>
</svg>
