<svg width="64" height="64" viewBox="0 0 64 64" fill="none" xmlns="http://www.w3.org/2000/svg">
<rect x="10" y="10" width="44" height="44" rx="22" fill="#317FF5"/>
<rect x="5" y="5" width="54" height="54" rx="27" stroke="#317FF5" stroke-opacity="0.2" stroke-width="10"/>
<path d="M23.4252 29C22.8778 29 22.6041 29 22.4008 28.8621C22.2942 28.7898 22.192 28.6732 22.1344 28.558C22.0244 28.3383 22.0571 28.0923 22.1225 27.6002C22.215 26.903 22.3776 26.3647 22.6631 25.8988C23.0342 25.2933 23.5433 24.7842 24.1488 24.4131C25.2309 23.75 26.7039 23.75 29.65 23.75H34.35C37.2961 23.75 38.7691 23.75 39.8512 24.4131C40.4567 24.7842 40.9658 25.2933 41.3369 25.8988C41.6224 26.3647 41.785 26.903 41.8776 27.6002C41.9429 28.0923 41.9756 28.3383 41.8656 28.558C41.808 28.6732 41.7058 28.7898 41.5992 28.8621C41.3959 29 41.1222 29 40.5748 29H23.4252Z" fill="white"/>
<path fill-rule="evenodd" clip-rule="evenodd" d="M22.9008 30.5C22.4033 30.5 22 30.9025 22 31.4V33.1C22 36.0461 22 37.5191 22.6631 38.6012C23.0342 39.2067 23.5433 39.7158 24.1488 40.0869C25.2309 40.75 26.7039 40.75 29.65 40.75H34.35C37.2961 40.75 38.7691 40.75 39.8512 40.0869C40.4567 39.7158 40.9658 39.2067 41.3369 38.6012C42 37.5191 42 36.0461 42 33.1V31.4C42 30.9025 41.5967 30.5 41.0992 30.5L22.9008 30.5ZM26 33.75C25.5858 33.75 25.25 34.0858 25.25 34.5C25.25 34.9142 25.5858 35.25 26 35.25H27.25C27.6642 35.25 28 34.9142 28 34.5C28 34.0858 27.6642 33.75 27.25 33.75H26ZM29.75 34.5C29.75 34.0858 30.0858 33.75 30.5 33.75H34C34.4142 33.75 34.75 34.0858 34.75 34.5C34.75 34.9142 34.4142 35.25 34 35.25H30.5C30.0858 35.25 29.75 34.9142 29.75 34.5Z" fill="white"/>
</svg>
