<svg width="16" height="16" viewBox="0 0 16 16" fill="none" xmlns="http://www.w3.org/2000/svg">
<g clip-path="url(#clip0_452_245)">
<path d="M11.4335 6.52044C11.7264 6.22755 11.7264 5.75268 11.4335 5.45978C11.1406 5.16689 10.6657 5.16689 10.3728 5.45978L6.8834 8.94923L5.62716 7.69299C5.33427 7.4001 4.85939 7.4001 4.5665 7.69299C4.27361 7.98588 4.27361 8.46076 4.5665 8.75365L6.35307 10.5402C6.64596 10.8331 7.12083 10.8331 7.41373 10.5402L11.4335 6.52044Z" fill="#317FF5"/>
<path fill-rule="evenodd" clip-rule="evenodd" d="M16 8C16 12.4183 12.4183 16 8 16C3.58172 16 0 12.4183 0 8C0 3.58172 3.58172 0 8 0C12.4183 0 16 3.58172 16 8ZM14.5 8C14.5 11.5899 11.5899 14.5 8 14.5C4.41015 14.5 1.5 11.5899 1.5 8C1.5 4.41015 4.41015 1.5 8 1.5C11.5899 1.5 14.5 4.41015 14.5 8Z" fill="#317FF5"/>
</g>
<defs>
<clipPath id="clip0_452_245">
<rect width="16" height="16" fill="white"/>
</clipPath>
</defs>
</svg>
