<svg width="64" height="64" viewBox="0 0 64 64" fill="none" xmlns="http://www.w3.org/2000/svg">
<rect x="10" y="10" width="44" height="44" rx="22" fill="#317FF5"/>
<rect x="5" y="5" width="54" height="54" rx="27" stroke="#317FF5" stroke-opacity="0.2" stroke-width="10"/>
<path d="M27.0001 22C26.0704 22 25.1871 22.4146 24.5919 23.1289L20.8712 27.5918C20.1944 28.4039 20.2001 29.6031 20.8829 30.4102L30.59 41.8828C31.3149 42.7395 32.6854 42.7395 33.4103 41.8828L43.1173 30.4102C43.8002 29.6031 43.8058 28.4039 43.129 27.5918L39.4083 23.1289C38.8131 22.4146 37.9299 22 37.0001 22H27.0001ZM26.9689 24H29.5001C29.7298 24 29.8792 24.2417 29.7765 24.4472L28.2237 27.5528C28.0867 27.8269 27.8066 28 27.5001 28H23.6349C23.4363 28 23.3279 27.7684 23.455 27.6159L26.1487 24.3841C26.3516 24.1407 26.6521 24 26.9689 24ZM34.6349 24H37.1661C37.483 24 37.7834 24.1407 37.9863 24.3841L40.68 27.6159C40.8071 27.7684 40.6987 28 40.5001 28H36.6349C36.3285 28 36.0483 27.8269 35.9113 27.5528L34.3585 24.4472C34.2558 24.2417 34.4052 24 34.6349 24ZM34.4082 30.482L32.1331 38.7309C32.125 38.76 32.1077 38.7857 32.0837 38.804C32.0596 38.8223 32.0303 38.8322 32.0001 38.8322C31.9699 38.8322 31.9405 38.8223 31.9165 38.804C31.8925 38.7857 31.8751 38.76 31.8671 38.7309L29.5902 30.482C29.5746 30.4255 29.5723 30.3661 29.5834 30.3085C29.5945 30.251 29.6187 30.1967 29.6543 30.1501C29.6898 30.1034 29.7356 30.0656 29.7881 30.0396C29.8407 30.0135 29.8985 30 29.9572 30H34.0411C34.0998 30 34.1576 30.0135 34.2102 30.0396C34.2627 30.0656 34.3085 30.1034 34.3441 30.1501C34.3796 30.1967 34.4039 30.251 34.415 30.3085C34.4261 30.3661 34.4238 30.4255 34.4082 30.482Z" fill="white"/>
</svg>
