<svg width="84" height="84" viewBox="0 0 84 84" fill="none" xmlns="http://www.w3.org/2000/svg">
<circle cx="42" cy="42" r="42" fill="#69F5C4" fill-opacity="0.5"/>
<circle cx="42" cy="42" r="35" fill="#69F5C4"/>
<g clip-path="url(#clip0_651_155)">
<path d="M56.9926 54.1438C55.9898 53.1766 55.7704 51.6771 56.4592 50.4978C57.3489 48.9744 58.5442 46.576 58.6479 43.3532C58.9238 34.6689 51.8562 27.1633 42.8896 26.6219C42.5089 26.6015 42.1352 26.5918 41.7482 26.5918H41.7186C41.3945 26.5918 41.0731 26.602 40.7612 26.6117C40.7533 26.6117 40.7453 26.6122 40.7379 26.6127C38.8549 26.7106 37.0125 27.1195 35.2621 27.8287C33.5735 28.5124 32.0082 29.4597 30.6083 30.6436C27.8117 33.0083 25.8276 36.2285 25.022 39.7124C24.727 41.0023 23.4677 41.9384 22.0276 41.9384H20.0378C19.4652 41.9384 19 42.3876 19 42.9392C19 43.4909 19.4657 43.9401 20.0378 43.9401H22.0266C23.1806 43.9401 24.3162 43.5689 25.2234 42.8954C26.1522 42.2056 26.7998 41.2287 27.0478 40.1452C27.7583 37.0754 29.5087 34.235 31.9765 32.1482C33.2082 31.1066 34.5838 30.2745 36.0656 29.6739C37.5919 29.0554 39.198 28.698 40.8379 28.6118C41.1281 28.6027 41.4284 28.5935 41.7181 28.5935H41.7477C42.0966 28.5935 42.4312 28.6021 42.7669 28.6205C50.6217 29.0947 56.815 35.6759 56.5729 43.2915C56.4835 46.0733 55.4331 48.1759 54.6507 49.5153C53.5061 51.4742 53.8656 53.9597 55.5245 55.5596L57.0952 57.0744C57.2913 57.2636 57.5519 57.3676 57.829 57.3676C58.106 57.3676 58.3666 57.2636 58.5627 57.0744C58.9672 56.6844 58.9672 56.0491 58.5627 55.6586L56.9921 54.1438H56.9926Z" fill="white"/>
<path d="M27.826 46.961C29.5452 45.7776 30.6824 44.117 31.1143 42.1592C32.1843 37.3186 36.265 33.6369 40.8167 33.4055C41.0346 33.3943 41.2481 33.3892 41.4887 33.3892C41.7049 33.3892 41.9158 33.3943 42.1336 33.4055C47.7173 33.69 52.0909 38.1803 52.0909 43.628C52.0909 44.947 51.8557 46.5291 50.1481 49.1477C48.3782 51.8617 48.4733 55.2991 50.3902 57.905C50.5848 58.1691 50.9014 58.3266 51.2371 58.3266C51.4534 58.3266 51.6606 58.2629 51.8372 58.142C52.0634 57.9876 52.2136 57.7571 52.2596 57.4935C52.3061 57.2299 52.2432 56.9648 52.083 56.7466C50.654 54.804 50.5843 52.24 51.9054 50.2138C53.0801 48.4125 54.167 46.368 54.167 43.6286C54.167 37.1157 48.9296 31.7469 42.2431 31.4063C41.9888 31.3936 41.7419 31.387 41.4892 31.387C41.2117 31.387 40.9632 31.3931 40.7078 31.4063C35.2352 31.6847 30.3472 36.0317 29.0847 41.7421C28.7628 43.2023 27.9106 44.4438 26.6207 45.3315C25.2884 46.2487 23.5782 46.7331 21.674 46.7331H20.0389C19.4663 46.7331 19.0011 47.1822 19.0011 47.7339C19.0011 48.2856 19.4668 48.7347 20.0389 48.7347H21.674C24.0128 48.7347 26.1406 48.1214 27.8265 46.9604L27.826 46.961Z" fill="white"/>
<path d="M21.4149 28.3922C21.5963 28.5237 21.8119 28.5931 22.0382 28.5931C22.3628 28.5931 22.6731 28.4437 22.8682 28.1938C25.0458 25.4029 27.8952 23.0897 31.1095 21.5051C34.4781 19.844 38.1142 19.0017 41.9174 19.0017C45.7206 19.0017 49.3567 19.844 52.7253 21.5051C55.9395 23.0897 58.789 25.4029 60.9666 28.1938C61.1331 28.4075 61.3763 28.5456 61.6506 28.5834C61.6998 28.59 61.749 28.5936 61.7981 28.5936C62.0218 28.5936 62.238 28.5242 62.4198 28.3922C62.6414 28.2316 62.7846 27.997 62.8237 27.7324C62.8623 27.4678 62.792 27.2042 62.6255 26.9906C60.2597 23.958 57.1634 21.4449 53.6705 19.7226C50.0059 17.9162 46.052 17 41.9174 17C37.7827 17 33.8284 17.9162 30.1648 19.7226C26.6719 21.4449 23.5756 23.958 21.2098 26.9906C20.8656 27.4316 20.9576 28.0603 21.4155 28.3922H21.4149Z" fill="white"/>
<path d="M21.7125 37.1785C21.8161 37.2101 21.9224 37.2259 22.0281 37.2259C22.192 37.2259 22.3543 37.1882 22.5039 37.1132C22.7502 36.9903 22.9321 36.7823 23.0162 36.5274C23.613 34.7174 24.525 33.0094 25.7271 31.4508C26.9156 29.9105 28.3577 28.5533 30.014 27.4168C33.4656 25.0485 37.5818 23.7969 41.9173 23.7969C46.2528 23.7969 50.369 25.0485 53.8206 27.4168C55.4769 28.5533 56.9196 29.9105 58.1075 31.4508C59.3097 33.0089 60.2216 34.7169 60.8185 36.5274C60.9559 36.945 61.3535 37.2254 61.8076 37.2254C61.9144 37.2254 62.0201 37.2096 62.1221 37.178C62.6677 37.0107 62.9701 36.4468 62.7967 35.9207C62.1301 33.8986 61.1129 31.9928 59.7733 30.2562C58.4554 28.5477 56.8578 27.0436 55.0238 25.7858C51.2185 23.1753 46.6863 21.7952 41.9173 21.7952C37.1483 21.7952 32.6161 23.1748 28.8108 25.7858C26.9774 27.0436 25.3793 28.5477 24.0613 30.2562C22.7217 31.9928 21.7046 33.8986 21.0379 35.9207C20.8645 36.4468 21.1669 37.0107 21.7125 37.178V37.1785Z" fill="white"/>
<path d="M63.8335 40.9095C63.7705 40.3614 63.2562 39.9647 62.6873 40.0254C62.1185 40.0866 61.7072 40.5822 61.7706 41.1308C62.3326 46.007 61.2504 49.2476 60.2433 51.1076C59.9785 51.5971 60.1757 52.2028 60.6832 52.4582C60.8312 52.5326 60.9967 52.5719 61.1632 52.5719C61.5512 52.5719 61.9044 52.3659 62.0836 52.034C63.2239 49.9273 64.453 46.2869 63.834 40.9095H63.8335Z" fill="white"/>
<path d="M45.7755 52.439C47.8637 49.6302 48.9226 46.434 48.9226 42.9389C48.9226 39.2139 45.7802 36.1833 41.9179 36.1833C38.0555 36.1833 34.9131 39.2139 34.9131 42.9389C34.9131 45.2368 33.8505 47.3746 31.9214 48.9588C29.9036 50.6163 27.0958 51.5289 24.0169 51.5289H22.0281C21.4556 51.5289 20.9904 51.9781 20.9904 52.5298C20.9904 53.0814 21.4561 53.5306 22.0281 53.5306H24.0169C27.5891 53.5306 30.8742 52.4482 33.2674 50.4827C35.667 48.5116 36.9886 45.8323 36.9886 42.9384C36.9886 40.3172 39.2 38.1845 41.9179 38.1845C44.6357 38.1845 46.8471 40.3172 46.8471 42.9384C46.8471 46.0011 45.9225 48.8007 44.0986 51.2592C42.6178 53.2553 40.5412 55.0433 37.926 56.5734C33.4255 59.2073 28.8203 60.173 28.7754 60.1822C28.5042 60.2372 28.2711 60.3907 28.1199 60.615C27.9681 60.8389 27.9163 61.1065 27.9734 61.3681C28.0739 61.8285 28.501 62.1629 28.9884 62.1629C29.0603 62.1629 29.1328 62.1558 29.2031 62.1415C29.4029 62.1007 34.1556 61.1147 38.9743 58.3018C41.838 56.63 44.1261 54.6579 45.7755 52.439Z" fill="white"/>
<path d="M38.6835 52.4798C41.5182 49.6695 42.9551 46.1367 42.9551 41.9798C42.9551 41.4277 42.4894 40.979 41.9174 40.979C41.3453 40.979 40.8796 41.4282 40.8796 41.9798C40.8796 45.5973 39.6404 48.6605 37.1959 51.0843C36.7968 51.4799 36.8063 52.1147 37.2165 52.4997C37.4116 52.6822 37.6685 52.7831 37.9403 52.7831C38.212 52.7831 38.4874 52.6756 38.6841 52.4803L38.6835 52.4798Z" fill="white"/>
<path d="M35.3964 54.6944C35.4646 54.4354 35.4239 54.1662 35.2822 53.9363C35.1405 53.7063 34.9142 53.5437 34.6457 53.4779C34.3771 53.4121 34.0975 53.4514 33.8596 53.588C30.0056 55.8003 25.9159 56.3275 25.8763 56.3321C25.3085 56.4004 24.9041 56.9021 24.9755 57.4497C25.0405 57.9493 25.4824 58.3266 26.0048 58.3266C26.0481 58.3266 26.0915 58.3241 26.1343 58.319C26.3172 58.297 30.6675 57.7505 34.9216 55.3088C35.1601 55.1721 35.3287 54.9539 35.3969 54.6949L35.3964 54.6944Z" fill="white"/>
<path d="M54.5175 60.2127C52.9928 60.7026 51.4713 60.7434 49.9953 60.3335C48.9132 60.0327 47.8733 59.5019 46.9037 58.756C45.7169 57.8423 44.0532 57.8668 42.9478 58.8146C39.5157 61.758 33.7872 63.0515 33.7306 63.0638C33.4605 63.1229 33.23 63.2804 33.0825 63.5063C32.935 63.7322 32.8874 64.0009 32.9487 64.2614C33.0566 64.7203 33.4726 65.0405 33.96 65.0405C34.0377 65.0405 34.1155 65.0318 34.1905 65.0155C34.4453 64.9594 40.48 63.6093 44.327 60.31C44.6749 60.0118 45.2136 60.0158 45.6085 60.3197C46.7922 61.2313 48.0747 61.8829 49.4201 62.2567C51.3075 62.7808 53.2429 62.7318 55.1735 62.1113C55.7165 61.937 56.0109 61.369 55.8301 60.8454C55.6493 60.3223 55.0604 60.0378 54.5175 60.2121V60.2127Z" fill="white"/>
<path d="M48.5214 64.2084C47.2267 63.2371 45.5688 62.923 43.7264 63.2998C42.4064 63.5701 41.4352 64.111 41.3945 64.134C41.155 64.2686 40.9843 64.4852 40.914 64.7437C40.8437 65.0022 40.8817 65.2719 41.0213 65.5029C41.2068 65.8093 41.5505 65.9995 41.9184 65.9995C42.1013 65.9995 42.2821 65.9526 42.4391 65.8639C42.4672 65.8481 45.286 64.3175 47.2473 65.7884C47.4313 65.9266 47.6528 65.9995 47.8828 65.9995C47.9261 65.9995 47.97 65.997 48.0139 65.9913C48.2888 65.9582 48.5341 65.8236 48.7043 65.6125C48.8745 65.4014 48.9491 65.1389 48.9147 64.8737C48.8803 64.6086 48.7408 64.3721 48.5219 64.2079L48.5214 64.2084Z" fill="white"/>
</g>
<defs>
<clipPath id="clip0_651_155">
<rect width="45" height="49" fill="white" transform="translate(19 17)"/>
</clipPath>
</defs>
</svg>
