<svg width="80" height="80" viewBox="0 0 80 80" fill="none" xmlns="http://www.w3.org/2000/svg">
<g clip-path="url(#clip0_314_14)">
<path fill-rule="evenodd" clip-rule="evenodd" d="M60 80L20 80C14.6957 79.9998 9.6088 77.8926 5.85812 74.1419C2.10744 70.3912 0.000230749 65.3043 -1.19183e-06 60L-3.97276e-07 20C0.000231754 14.6957 2.10744 9.6088 5.85812 5.85812C9.6088 2.10744 14.6957 0.000232338 20 3.97276e-07L60 1.19183e-06C65.3043 1.29719e-06 70.3914 2.10714 74.1421 5.85787C77.8929 9.60859 80 14.6957 80 20L80 60C80 65.3043 77.8929 70.3914 74.1421 74.1421C70.3914 77.8929 65.3043 80 60 80Z" fill="#317FF5"/>
<path d="M48.8365 15.265C48.8062 17.6264 47.919 19.8963 46.34 21.6525C45.6019 22.6314 44.6699 23.4476 43.6021 24.05C42.5343 24.6525 41.3537 25.0282 40.1341 25.1537C40.0171 25.1561 39.9007 25.1352 39.7918 25.092C39.6829 25.0489 39.5837 24.9844 39.5 24.9025C39.4164 24.8205 39.3499 24.7227 39.3045 24.6147C39.2592 24.5068 39.2358 24.3908 39.2358 24.2737L39.2233 24.2737C39.3032 21.874 40.2432 19.5831 41.8716 17.8187C42.7753 16.805 43.8721 15.9819 45.0979 15.3975C45.9792 14.9538 46.9185 14.6361 47.8881 14.4537C48.005 14.4359 48.1244 14.4435 48.2381 14.4761C48.3517 14.5087 48.457 14.5654 48.5467 14.6425C48.6365 14.7195 48.7085 14.815 48.7579 14.9224C48.8072 15.0299 48.8328 15.1467 48.8329 15.265L48.8365 15.265ZM57.6448 49.925C56.979 51.4755 56.1567 52.954 55.1905 54.3375C54.2812 55.7242 53.2209 57.0057 52.029 58.1587C50.9456 59.2414 49.4966 59.8799 47.9665 59.9487C46.6698 59.8918 45.3958 59.5876 44.2133 59.0525C42.9368 58.4961 41.5646 58.1926 40.1726 58.1587C38.7431 58.1871 37.3324 58.4905 36.0176 59.0525C34.8818 59.5648 33.6683 59.8837 32.4274 59.9962C31.6466 59.9867 30.8758 59.819 30.1616 59.5031C29.4475 59.1873 28.8048 58.73 28.2724 58.1587C27.0284 56.9653 25.9195 55.6385 24.9658 54.2025C23.4754 52.0658 22.2979 49.7272 21.469 47.2575C20.5234 44.5985 20.027 41.8007 20 38.9787C19.9248 36.2104 20.6115 33.4746 21.9851 31.07C22.9864 29.3341 24.4183 27.8858 26.1426 26.865C27.8427 25.8477 29.7824 25.3003 31.7634 25.2787C33.2595 25.3674 34.7296 25.7098 36.1109 26.2912C37.212 26.7761 38.371 27.1168 39.5593 27.305C40.8696 27.0319 42.1502 26.6316 43.3829 26.11C45.0311 25.4403 46.8021 25.126 48.5801 25.1875C50.9604 25.3022 53.2521 26.1253 55.1614 27.5512C55.4271 27.7728 55.6422 28.0488 55.7921 28.3607C55.9419 28.6726 56.0231 29.013 56.03 29.3589C56.0369 29.7048 55.9695 30.0482 55.8323 30.3659C55.695 30.6835 55.4912 30.9679 55.2345 31.2C54.214 32.11 53.4064 33.2336 52.869 34.4909C52.3316 35.7482 52.0776 37.1084 52.125 38.475C52.1079 39.8402 52.3811 41.1935 52.9266 42.4451C53.4722 43.6968 54.2775 44.8182 55.2893 45.735C55.7325 46.1575 56.2113 46.541 56.7204 46.8812C57.2009 47.2012 57.5549 47.6787 57.7214 48.2315C57.888 48.7842 57.8567 49.3778 57.6329 49.91C57.6474 49.9187 57.646 49.9225 57.6448 49.925Z" fill="white"/>
</g>
<defs>
<clipPath id="clip0_314_14">
<rect width="80" height="80" fill="white"/>
</clipPath>
</defs>
</svg>
