<svg width="100" height="100" viewBox="0 0 100 100" fill="none" xmlns="http://www.w3.org/2000/svg">
<path fill-rule="evenodd" clip-rule="evenodd" d="M48.3674 2.47694L24.9746 15.9137L24.8439 15.9876C22.5739 17.3186 21.0507 19.7748 21.0507 22.5857V69.9108L33.6662 62.6653L33.5929 62.5008L33.5889 62.489L33.5087 62.2988L33.4334 62.1116L33.4225 62.084L33.3473 61.8919L33.275 61.6988L33.273 61.6909L33.271 61.689L33.1997 61.4919L33.1304 61.2899L33.1284 61.284L33.061 61.084L32.9947 60.8761L32.9937 60.8722L32.9917 60.8683L32.9739 60.8101L32.9561 60.754C32.9273 60.6574 32.8986 60.5579 32.8709 60.4594L32.8689 60.4564L32.8115 60.2485L32.755 60.0367L32.753 60.0298V60.0269L32.7233 59.9077L32.6926 59.7894C32.6431 59.5884 32.5985 59.3855 32.5559 59.1815L32.555 59.1786L32.5124 58.9628L32.4737 58.7549V58.749L32.4718 58.7411V58.7362L32.4331 58.5224L32.3995 58.3086C32.3539 58.0111 32.3153 57.7155 32.2866 57.4229L32.2856 57.414L32.2648 57.2012L32.246 56.9746L32.2301 56.749L32.2182 56.5342L32.2172 56.5263V56.5233L32.2063 56.2958L32.1994 56.0751V56.0701L32.1954 55.8396L32.1935 55.613L32.1954 55.3933L32.1994 55.1746L32.2044 55.0268L32.2063 54.9844L32.2153 54.7361L32.2242 54.5844L32.2271 54.5509L32.2291 54.5253L32.243 54.3036L32.2796 53.8721L32.3014 53.6691L32.3282 53.4376L32.3529 53.2474L32.3856 53.0129L32.4163 52.8169L32.4549 52.5844L32.4886 52.4001L32.5332 52.1646L32.5708 51.9755C32.5926 51.8691 32.6074 51.8031 32.6223 51.739L32.6609 51.5705L32.7204 51.3292L32.7659 51.1498L32.8194 50.9528L32.8362 50.8897L32.8739 50.7538L32.9115 50.6257L32.9521 50.4947L33.0086 50.3094L33.067 50.1252L33.1264 49.9459L33.1512 49.8759C33.1868 49.7735 33.2225 49.672 33.2651 49.5547L33.3215 49.406L33.3225 49.402L33.3324 49.3754C33.3542 49.3193 33.377 49.2572 33.4146 49.1616L33.4909 48.9734L33.5642 48.7941L33.6721 48.5458L33.7355 48.402L33.8236 48.2089L33.9048 48.0345L34.0009 47.8375L34.093 47.6552L34.1901 47.466L34.2772 47.3005L34.3327 47.199L34.3862 47.0995L34.4773 46.9389L34.4852 46.9241C34.5149 46.8719 34.5436 46.8197 34.5912 46.7409L34.6813 46.5882L34.6823 46.5852L34.6991 46.5566L34.7992 46.3931L34.8923 46.2443L35.0269 46.0315L35.0606 45.9823L35.1735 45.8108L35.2894 45.6414C35.4865 45.3527 35.6925 45.0719 35.9044 44.8L36.048 44.6157L36.1441 44.4995L36.2104 44.4167L36.2996 44.3083L36.3917 44.2L36.4769 44.1004L36.5561 44.0088L36.6383 43.9172L36.7502 43.7921L36.8364 43.6975L36.9225 43.6039L37.0186 43.5014L37.1166 43.398L37.2157 43.2955L37.284 43.2265L37.3979 43.1113L37.5128 42.998L37.5564 42.9556L37.6742 42.8423L37.7941 42.73L37.8565 42.6718L37.9773 42.5595L38.1021 42.4472L38.1229 42.4295L38.2595 42.3073L38.4012 42.1861L38.416 42.1733L38.419 42.1713C38.5081 42.0945 38.5943 42.0226 38.6696 41.9615C38.7438 41.9004 38.829 41.8324 38.9241 41.7565C39.3648 41.4088 39.8194 41.0817 40.2908 40.7782L40.3096 40.7644L40.4671 40.6649L40.6236 40.5664L40.6454 40.5536L40.7999 40.46L40.9524 40.3683L40.9989 40.3417L41.0415 40.3171L41.0851 40.2925C41.1614 40.2481 41.2337 40.2068 41.298 40.1713L41.3485 40.1437L41.4951 40.0629L41.6447 39.9831L41.713 39.9476L41.8675 39.8678L42.02 39.79L42.0448 39.7782L42.2181 39.6935L42.3894 39.6107L42.3954 39.6087C42.5459 39.5378 42.6984 39.4678 42.8519 39.4018C42.9985 39.3378 43.154 39.2728 43.3174 39.2077C44.1186 38.8856 44.9476 38.6186 45.7993 38.4156L45.8142 38.4117L46.0023 38.3673L46.1885 38.3259L46.2202 38.319L46.4114 38.2796L46.6065 38.2422L46.6174 38.2402L46.8045 38.2048L46.9957 38.1722L47.0452 38.1634L47.2294 38.1338L47.4166 38.1072L47.4404 38.1023L47.6335 38.0767L47.8227 38.052L47.8385 38.0501L48.0138 38.0274L48.0128 37.852V18.8822C48.0128 18.5551 48.0802 18.294 48.1901 18.0979C48.2852 17.9295 48.4129 17.8043 48.5625 17.7236C48.714 17.6418 48.8883 17.6004 49.0715 17.6004C49.3112 17.6004 49.5657 17.6704 49.8054 17.8024L78.9374 34.5544V22.5857C78.9374 19.8605 77.5034 17.4664 75.3443 16.1107L51.6624 2.51044C51.0394 2.15575 50.5224 1.97053 50.0025 1.96265C49.9906 1.96265 49.9787 1.96265 49.9668 1.96265C49.4578 1.96265 48.9576 2.13309 48.3674 2.47694ZM51.9912 37.9653L52.1714 37.985L52.1843 37.987L52.3883 38.0136L52.5904 38.0412L52.6191 38.0471L52.8241 38.0777L53.0291 38.1112L53.036 38.1131L53.247 38.1506L53.4569 38.191L53.4629 38.1919L53.6709 38.2353L53.8838 38.2806L53.8927 38.2836L53.9521 38.2974L54.0096 38.3102C54.1096 38.3328 54.2096 38.3585 54.3097 38.3831H54.3126L54.5236 38.4373L54.7355 38.4944L54.7424 38.4964L54.7444 38.4984L54.8643 38.5309L54.9811 38.5644C55.1802 38.6235 55.3803 38.6856 55.5783 38.7506L55.5843 38.7525L55.7913 38.8225L55.9923 38.8934L55.9973 38.8954L56.0052 38.8993L56.0091 38.9003L56.2141 38.9752L56.4172 39.0521L56.4192 39.053C56.7014 39.1624 56.9758 39.2777 57.2441 39.3969L57.2531 39.3998L57.4492 39.4905L57.6552 39.587L57.8592 39.6866L58.0523 39.7831L58.0602 39.7861L58.0632 39.788L58.2662 39.8925L58.4613 39.9979L58.4653 39.9999L58.6693 40.1112L58.8674 40.2225L59.0565 40.3339L59.2457 40.4472L59.4081 40.5477L59.6191 40.6816L59.7478 40.7644L59.7746 40.7821L59.7944 40.7969L59.8211 40.8137L59.9816 40.9201L60.146 41.0324L60.3391 41.1674L60.5055 41.2876L60.6936 41.4275L60.8462 41.5428L61.0343 41.6896L61.1898 41.8137L61.373 41.9625L61.5166 42.0836L61.6989 42.2393L61.8445 42.3674C61.9257 42.4393 61.9762 42.4846 62.0247 42.53L62.1525 42.6462L62.3327 42.8196L62.4664 42.9477L62.61 43.0916L62.7576 43.2384L62.8507 43.3349L62.9428 43.4354L63.0775 43.5763L63.2072 43.7192L63.334 43.86L63.3825 43.9172C63.4538 43.999 63.5251 44.0798 63.6054 44.1753L63.7064 44.2985L63.7094 44.3004L63.7272 44.3231C63.7668 44.3704 63.8074 44.4206 63.8728 44.5004L63.9985 44.6601L64.1174 44.8138L64.256 44.999L64.2798 45.0305L64.3739 45.1566L64.4977 45.329L64.6086 45.4867L64.7314 45.667L64.8453 45.8384L64.9612 46.0157L65.0612 46.1744L65.1236 46.2729L65.182 46.3685L65.2761 46.5271L65.285 46.5419C65.3157 46.5931 65.3464 46.6443 65.392 46.7241L65.4802 46.8788L65.4811 46.8808L65.498 46.9094L65.5911 47.0769L65.6733 47.2325L65.7327 47.3429L65.7921 47.4552L65.8169 47.5064L65.8179 47.5084L65.8199 47.5094L65.91 47.6907L66.0001 47.8759C66.1526 48.1912 66.2942 48.5084 66.425 48.8266L66.4586 48.9074L66.5131 49.0434L66.5676 49.1823L66.6547 49.4129L66.7033 49.5469L66.7468 49.669L66.7875 49.7833L66.8271 49.9006L66.8796 50.0592L66.9192 50.1814L66.9578 50.3025L67.039 50.5705L67.0786 50.7085L67.1054 50.8011L67.1895 51.1124L67.2044 51.1715L67.245 51.3311L67.2816 51.4888L67.3015 51.5705L67.3391 51.7321L67.3738 51.8967L67.3787 51.9233L67.4163 52.1026L67.452 52.2839L67.456 52.3036V52.3075C67.4777 52.4228 67.4976 52.5331 67.5134 52.6277C67.5292 52.7223 67.5471 52.8297 67.5639 52.9499C67.6461 53.5026 67.7036 54.0593 67.7343 54.6159L67.7353 54.6396L67.7442 54.8258L67.7501 55.009L67.7511 55.0347L67.7551 55.2149L67.758 55.3913V55.543C67.759 55.6317 67.758 55.7145 67.757 55.7874L67.7531 56.011L67.7471 56.1805L67.7451 56.2563L67.7273 56.6002L67.7263 56.6268L67.7135 56.8199L67.6996 57.0071V57.014C67.6847 57.1795 67.6689 57.345 67.6501 57.5115C67.6322 57.6702 67.6105 57.8357 67.5867 58.0091C67.4659 58.8603 67.2836 59.7076 67.036 60.5431L67.0311 60.5579L66.9746 60.7412L66.9182 60.9234L66.9083 60.954L66.8469 61.1382L66.7825 61.3254L66.7795 61.3353L66.7161 61.5136L66.6478 61.6959L66.631 61.7422L66.5646 61.9166L66.4953 62.0909L66.4874 62.1146L66.4131 62.2919L66.3398 62.4693L66.3339 62.4831L66.2655 62.6456L66.419 62.7333L82.9336 72.2173C83.2189 72.3808 83.411 72.568 83.5279 72.7631C83.6269 72.9276 83.6705 73.101 83.6665 73.2705C83.6635 73.4409 83.6101 73.6114 83.5189 73.77C83.3981 73.9769 83.2119 74.1611 82.9772 74.302L54.1304 90.8492L53.8263 91.0226L54.1304 91.1979L64.2461 97.0069C66.6201 98.3715 69.4199 98.3321 71.6799 97.1498L95.3599 83.5475C95.9809 83.1879 96.4008 82.8352 96.6672 82.3909C96.9346 81.9455 97.0426 81.4214 97.0367 80.7248V53.7036C97.0129 51.0828 95.6362 48.5409 93.19 47.136L51.9912 23.4734V37.9653ZM6.80506 47.1399C4.43211 48.5035 3.06539 50.936 2.96338 53.473L2.96635 80.6756C2.96932 81.3899 3.06638 81.9288 3.31893 82.38C3.57246 82.8332 3.97555 83.1869 4.58463 83.5318L27.9784 96.9675L28.1072 97.0424C30.4009 98.3321 33.3027 98.4168 35.7489 97.0118L76.6447 73.5237L76.9468 73.3483L64.4888 66.1935L64.3313 66.1038L64.2243 66.2487L64.2234 66.2506L64.2164 66.2585L64.0906 66.4221L63.9659 66.5807L63.947 66.6033L63.8173 66.7649L63.6856 66.9236L63.6806 66.9295L63.6796 66.9314L63.543 67.092L63.4023 67.2526L63.3984 67.2576L63.2577 67.4162L63.1102 67.5768L63.1062 67.5787L63.1032 67.5827L63.0626 67.627L63.022 67.6704C62.9527 67.7443 62.8814 67.8172 62.8091 67.892L62.8061 67.894L62.6556 68.0477L62.4981 68.2024L62.4932 68.2073L62.4912 68.2083L62.403 68.295L62.3149 68.3797C62.1644 68.5226 62.0108 68.6625 61.8534 68.8014L61.8514 68.8034L61.685 68.9482L61.5226 69.0862L61.5186 69.0891L61.5117 69.094L61.5087 69.097L61.3404 69.2369L61.172 69.3738C60.9363 69.562 60.6966 69.7413 60.4579 69.9128L60.452 69.9177L60.2747 70.0428L60.0875 70.1719L59.8984 70.299L59.7181 70.4162L59.7122 70.4212L59.7092 70.4222L59.5161 70.5453L59.3269 70.6616L59.323 70.6635L59.1249 70.7837L58.9288 70.898L58.7367 71.0074L58.5435 71.1128L58.4128 71.1818L58.3762 71.2015L58.1533 71.3177L58.0166 71.3857L57.9869 71.3995L57.9651 71.4103L57.9364 71.4251L57.7641 71.5099L57.3699 71.6941L57.1827 71.7778L56.7906 71.9434L56.5677 72.032L56.3825 72.104L56.1607 72.1877L55.9844 72.2508L55.7566 72.3296L55.5734 72.3916C55.4694 72.4261 55.405 72.4449 55.3406 72.4655L55.1762 72.5168L54.9356 72.5867L54.7573 72.636L54.5592 72.6892L54.4958 72.7059L54.3582 72.7414L54.2274 72.7729L54.0938 72.8035L53.9036 72.8488L53.7134 72.8892L53.5282 72.9276L53.455 72.9414C53.349 72.9631 53.242 72.9828 53.1182 73.0035L52.9608 73.0291L52.9578 73.0301L52.9291 73.035C52.8686 73.0449 52.8043 73.0567 52.7023 73.0715L52.4992 73.101L52.3061 73.1266L52.0763 73.1542L52.0367 73.1582L51.8793 73.1749L51.6673 73.1966L51.4752 73.2133L51.2563 73.2281L51.0503 73.2409L50.8384 73.2518L50.6492 73.2596L50.4204 73.2656L50.2352 73.2685L50.2184 73.2675C50.157 73.2685 50.0976 73.2695 50.0065 73.2695L49.8282 73.2675H49.7915L49.5994 73.2636L49.4241 73.2577L49.1696 73.2478L49.1141 73.2429H49.1111L49.1092 73.2439L48.9051 73.2321L48.6991 73.2163C48.3495 73.1907 48.0019 73.1542 47.6592 73.1079L47.5731 73.0961L47.4275 73.0754L47.2789 73.0518L47.173 73.036L47.0343 73.0124L46.8937 72.9877L46.7649 72.9641L46.6461 72.9404L46.5243 72.9168L46.3599 72.8833L46.1083 72.8281L45.9706 72.7976L45.834 72.7641L45.6943 72.7296L45.6002 72.7059L45.4428 72.6646L45.2873 72.6222L45.2279 72.6064L45.0694 72.5611L44.9129 72.5158L44.8317 72.4902L44.6723 72.4419L44.5128 72.3907L44.4871 72.3828L44.3118 72.3237L44.1365 72.2636L44.1167 72.2577L44.1137 72.2567C44.0018 72.2173 43.8968 72.1788 43.8067 72.1444C43.7156 72.1118 43.6145 72.0724 43.5006 72.0271C42.9777 71.8232 42.4657 71.5936 41.9655 71.3404L41.9438 71.3296L41.7794 71.2448L41.615 71.1591L41.5922 71.1463L41.4337 71.0606L41.2782 70.9739L41.2317 70.9463L41.1881 70.9227L41.1465 70.898C41.0683 70.8547 40.996 70.8123 40.9336 70.7759L40.8841 70.7463L40.7404 70.6596L40.5968 70.5709L40.3849 70.4369L40.2403 70.3433L40.2185 70.3286L40.0571 70.2212L39.8996 70.1148L39.8947 70.1118C39.757 70.0172 39.6213 69.9197 39.4866 69.8212C39.3579 69.7266 39.2232 69.6251 39.0845 69.5177C38.4032 68.9886 37.7574 68.4073 37.1543 67.7758L37.1444 67.764L37.0117 67.6241L36.8819 67.4842L36.8591 67.4605L36.7304 67.3147L36.6007 67.1669L36.5927 67.158L36.4679 67.0142L36.3442 66.8664L36.3125 66.827L36.1946 66.6832L36.0767 66.5354L36.0619 66.5176L35.9421 66.3639L35.8262 66.2122L35.8173 66.2014L35.7093 66.0615L19.0422 75.6351C18.758 75.7976 18.4985 75.8705 18.2717 75.8745C18.0786 75.8764 17.9052 75.8282 17.7587 75.7395C17.6131 75.6518 17.4913 75.5218 17.3982 75.3631C17.2783 75.1572 17.211 74.903 17.206 74.6301L17.2239 41.1556L6.80506 47.1399Z" fill="#BA0B22"/>
<path fill-rule="evenodd" clip-rule="evenodd" d="M35.989 55.4372C35.989 63.1736 42.2629 69.4482 49.9988 69.4482C57.737 69.4482 64.0109 63.1736 64.0109 55.4372C64.0109 47.7008 57.737 41.4263 49.9988 41.4263C42.2629 41.4263 35.989 47.7008 35.989 55.4372Z" fill="#FFC730"/>
</svg>
