<svg width="100" height="100" viewBox="0 0 100 100" fill="none" xmlns="http://www.w3.org/2000/svg">
<path d="M71.4208 38.1989L39.5093 56.6263C37.4828 57.7957 35.7066 59.3529 34.2821 61.209C32.8576 63.0651 31.8128 65.1837 31.2073 67.4437C30.6017 69.7037 30.4474 72.0608 30.7532 74.3805C31.0589 76.7001 31.8187 78.9368 32.989 80.9627L37.7154 89.1538C37.8435 89.3784 38.0442 89.5527 38.2845 89.6481C38.5249 89.7434 38.7905 89.7541 39.0377 89.6784C39.285 89.6027 39.4991 89.4451 39.6448 89.2315C39.7905 89.0179 39.8592 88.7611 39.8395 88.5032C39.6201 85.238 40.3043 81.9754 41.817 79.0735C43.3297 76.1715 45.6125 73.7422 48.415 72.0522L68.2863 60.5788C70.09 59.538 71.6709 58.152 72.9389 56.5001C74.2068 54.8482 75.1369 52.9627 75.676 50.9513C76.2152 48.9398 76.3527 46.8419 76.081 44.7773C75.8092 42.7127 75.1333 40.7218 74.092 38.9185C73.8304 38.4719 73.4036 38.1461 72.9038 38.0115C72.404 37.8768 71.8714 37.9442 71.4208 38.1989Z" fill="url(#paint0_linear_307_296)"/>
<path d="M81.2086 2.71676C80.9461 2.27101 80.519 1.94627 80.0193 1.81258C79.5196 1.6789 78.9874 1.74698 78.5374 2.00214L25.5816 32.5583C23.5515 33.7287 21.7721 35.288 20.3454 37.1469C18.9186 39.0058 17.8725 41.1278 17.2669 43.3915C16.6612 45.6552 16.508 48.0161 16.8159 50.3391C17.1238 52.6621 17.8868 54.9016 19.0613 56.9293L23.7926 65.1154C23.9205 65.3395 24.1208 65.5134 24.3606 65.6087C24.6003 65.704 24.8653 65.715 25.1122 65.64C25.3591 65.565 25.5731 65.4083 25.7193 65.1957C25.8654 64.9831 25.9351 64.7271 25.9167 64.4698C25.6962 61.2044 26.3799 57.9414 27.8927 55.0393C29.4055 52.1371 31.689 49.708 34.4921 48.0188L75.398 24.3969C77.2042 23.3559 78.7874 21.9692 80.0572 20.3158C81.327 18.6625 82.2583 16.7751 82.798 14.7615C83.3377 12.7479 83.4751 10.6476 83.2023 8.58088C82.9296 6.51413 82.2521 4.52144 81.2086 2.71676Z" fill="url(#paint1_linear_307_296)"/>
<path d="M53.4074 80.6519C51.6665 80.6519 49.9647 81.1681 48.5172 82.1353C47.0697 83.1025 45.9415 84.4772 45.2752 86.0856C44.609 87.6939 44.4347 89.4638 44.7744 91.1712C45.114 92.8787 45.9523 94.447 47.1833 95.678C48.4143 96.909 49.9827 97.7474 51.6902 98.087C53.3976 98.4267 55.1674 98.2523 56.7758 97.5861C58.3842 96.9199 59.7589 95.7917 60.7261 94.3442C61.6933 92.8967 62.2095 91.1949 62.2095 89.454C62.2095 87.1195 61.2821 84.8807 59.6314 83.2299C57.9807 81.5792 55.7418 80.6519 53.4074 80.6519Z" fill="url(#paint2_linear_307_296)"/>
<defs>
<linearGradient id="paint0_linear_307_296" x1="19.219" y1="9.37261" x2="85.1859" y2="107.635" gradientUnits="userSpaceOnUse">
<stop offset="0.3" stop-color="#1E3D90"/>
<stop offset="0.66" stop-color="#D0056D"/>
</linearGradient>
<linearGradient id="paint1_linear_307_296" x1="30.8008" y1="1.59801" x2="96.7676" y2="99.8607" gradientUnits="userSpaceOnUse">
<stop offset="0.3" stop-color="#1E3D90"/>
<stop offset="0.66" stop-color="#D0056D"/>
</linearGradient>
<linearGradient id="paint2_linear_307_296" x1="5.72992" y1="18.4306" x2="71.6968" y2="116.688" gradientUnits="userSpaceOnUse">
<stop offset="0.3" stop-color="#1E3D90"/>
<stop offset="0.66" stop-color="#D0056D"/>
</linearGradient>
</defs>
</svg>
