<svg width="100" height="100" viewBox="0 0 100 100" fill="none" xmlns="http://www.w3.org/2000/svg">
<path d="M67.3339 97.9165L96.6584 97.9166V26.2448C96.6584 22.5501 96.1783 18.7846 94.3214 15.5902C82.4203 -4.88285 50.9068 0.162592 46.6584 15.8058C53.6005 11.5342 59.4805 11.664 63.5464 15.2221C66.8639 18.1251 67.3339 22.9352 67.3339 27.3428V97.9165Z" fill="#2D2A68"/>
<path d="M33.1454 2.08347L3.82092 2.08342L3.82092 73.7551C3.82092 77.4499 4.30104 81.2153 6.158 84.4098C18.059 104.883 49.5726 99.8374 53.8209 84.1942C46.8788 88.4658 40.9989 88.336 36.9329 84.7779C33.6154 81.8749 33.1454 77.0648 33.1454 72.6572L33.1454 2.08347Z" fill="#2D2A68"/>
<circle cx="50.0836" cy="50.4455" r="16.6294" fill="#2D2A68"/>
</svg>
