<svg width="214" height="102" viewBox="0 0 214 102" fill="none" xmlns="http://www.w3.org/2000/svg">
<g filter="url(#filter0_d_431_179)">
<rect x="40" width="174" height="62" rx="31" fill="white"/>
</g>
<circle cx="71" cy="31" r="21" fill="#38DFDF"/>
<g clip-path="url(#clip0_431_179)">
<path d="M80.4841 39.4992C79.8378 38.8873 79.6965 37.9386 80.1404 37.1925C80.7138 36.2287 81.4841 34.7114 81.5508 32.6725C81.7287 27.1783 77.174 22.4299 71.3955 22.0874C71.1502 22.0745 70.9093 22.0683 70.66 22.0683H70.6409C70.432 22.0683 70.2249 22.0748 70.0239 22.0809C70.0188 22.0809 70.0137 22.0812 70.0089 22.0816C68.7954 22.1435 67.608 22.4022 66.48 22.8509C65.3918 23.2834 64.3831 23.8827 63.4809 24.6317C61.6786 26.1278 60.4 28.165 59.8808 30.3691C59.6907 31.1852 58.8792 31.7774 57.9511 31.7774H56.6688C56.2998 31.7774 56 32.0616 56 32.4106C56 32.7596 56.3001 33.0438 56.6688 33.0438H57.9505C58.6942 33.0438 59.426 32.8089 60.0106 32.3828C60.6092 31.9464 61.0266 31.3284 61.1863 30.643C61.6442 28.7008 62.7723 26.9038 64.3626 25.5836C65.1564 24.9246 66.0429 24.3982 66.9979 24.0182C67.9814 23.6269 69.0165 23.4008 70.0733 23.3463C70.2603 23.3405 70.4538 23.3347 70.6405 23.3347H70.6596C70.8845 23.3347 71.1001 23.3402 71.3165 23.3518C76.3785 23.6518 80.3697 27.8154 80.2136 32.6335C80.156 34.3934 79.4791 35.7236 78.9749 36.571C78.2373 37.8102 78.4689 39.3827 79.538 40.3949L80.5502 41.3533C80.6766 41.4729 80.8446 41.5387 81.0231 41.5387C81.2016 41.5387 81.3696 41.4729 81.496 41.3533C81.7566 41.1065 81.7566 40.7046 81.496 40.4575L80.4838 39.4992H80.4841Z" fill="white"/>
<path d="M61.6879 34.955C62.7958 34.2063 63.5286 33.1557 63.807 31.9171C64.4966 28.8547 67.1264 26.5255 70.0597 26.379C70.2001 26.3719 70.3377 26.3687 70.4927 26.3687C70.6321 26.3687 70.768 26.3719 70.9084 26.379C74.5068 26.559 77.3253 29.3998 77.3253 32.8464C77.3253 33.6808 77.1737 34.6817 76.0732 36.3384C74.9326 38.0554 74.9939 40.2301 76.2293 41.8787C76.3547 42.0458 76.5587 42.1455 76.7751 42.1455C76.9144 42.1455 77.048 42.1052 77.1618 42.0287C77.3076 41.931 77.4043 41.7852 77.434 41.6184C77.464 41.4516 77.4234 41.2839 77.3202 41.1459C76.3993 39.9169 76.3543 38.2947 77.2057 37.0129C77.9627 35.8733 78.6632 34.5798 78.6632 32.8467C78.6632 28.7263 75.288 25.3297 70.9789 25.1143C70.815 25.1062 70.6559 25.102 70.4931 25.102C70.3142 25.102 70.1541 25.1059 69.9895 25.1143C66.4627 25.2904 63.3127 28.0405 62.4991 31.6532C62.2916 32.577 61.7424 33.3625 60.9111 33.9241C60.0526 34.5043 58.9504 34.8108 57.7233 34.8108H56.6695C56.3005 34.8108 56.0007 35.0949 56.0007 35.444C56.0007 35.793 56.3009 36.0771 56.6695 36.0771H57.7233C59.2305 36.0771 60.6018 35.6891 61.6882 34.9546L61.6879 34.955Z" fill="white"/>
<path d="M57.5563 23.2073C57.6731 23.2905 57.8121 23.3344 57.958 23.3344C58.1671 23.3344 58.3671 23.2399 58.4929 23.0818C59.8962 21.3161 61.7325 19.8527 63.8039 18.8501C65.9748 17.7992 68.3181 17.2664 70.769 17.2664C73.2199 17.2664 75.5632 17.7992 77.7341 18.8501C79.8055 19.8527 81.6418 21.3161 83.0451 23.0818C83.1524 23.217 83.3092 23.3044 83.486 23.3283C83.5177 23.3324 83.5493 23.3347 83.581 23.3347C83.7251 23.3347 83.8645 23.2908 83.9817 23.2073C84.1244 23.1057 84.2168 22.9573 84.242 22.7899C84.2668 22.6225 84.2215 22.4557 84.1142 22.3206C82.5896 20.402 80.5942 18.8121 78.3432 17.7225C75.9816 16.5796 73.4335 16 70.769 16C68.1044 16 65.5561 16.5796 63.1951 17.7225C60.9441 18.8121 58.9487 20.402 57.4241 22.3206C57.2023 22.5996 57.2616 22.9973 57.5566 23.2073H57.5563Z" fill="white"/>
<path d="M57.7481 28.766C57.8149 28.786 57.8834 28.796 57.9515 28.796C58.0571 28.796 58.1617 28.7721 58.2581 28.7247C58.4169 28.647 58.5341 28.5154 58.5882 28.3541C58.9729 27.209 59.5606 26.1284 60.3353 25.1423C61.1012 24.1679 62.0306 23.3092 63.098 22.5902C65.3224 21.0919 67.975 20.3001 70.769 20.3001C73.563 20.3001 76.2156 21.0919 78.44 22.5902C79.5074 23.3092 80.4371 24.1679 81.2027 25.1423C81.9774 26.1281 82.5651 27.2087 82.9497 28.3541C83.0383 28.6183 83.2945 28.7957 83.5872 28.7957C83.656 28.7957 83.7241 28.7857 83.7899 28.7657C84.1415 28.6599 84.3363 28.3031 84.2246 27.9702C83.795 26.691 83.1395 25.4852 82.2762 24.3866C81.4268 23.3057 80.3973 22.3541 79.2154 21.5584C76.7631 19.9069 73.8424 19.0337 70.769 19.0337C67.6956 19.0337 64.7749 19.9065 62.3226 21.5584C61.141 22.3541 60.1111 23.3057 59.2618 24.3866C58.3985 25.4852 57.743 26.691 57.3134 27.9702C57.2016 28.3031 57.3965 28.6599 57.7481 28.7657V28.766Z" fill="white"/>
<path d="M84.8927 31.1265C84.8521 30.7797 84.5206 30.5288 84.1541 30.5671C83.7875 30.6058 83.5224 30.9194 83.5633 31.2665C83.9254 34.3514 83.2281 36.4016 82.579 37.5783C82.4084 37.888 82.5354 38.2712 82.8625 38.4328C82.9579 38.4799 83.0645 38.5047 83.1718 38.5047C83.4219 38.5047 83.6495 38.3744 83.765 38.1644C84.4999 36.8316 85.292 34.5285 84.893 31.1265H84.8927Z" fill="white"/>
<path d="M73.2554 38.4206C74.6011 36.6436 75.2835 34.6214 75.2835 32.4103C75.2835 30.0537 73.2584 28.1364 70.7693 28.1364C68.2802 28.1364 66.2552 30.0537 66.2552 32.4103C66.2552 33.8641 65.5704 35.2166 64.3272 36.2188C63.0268 37.2674 61.2174 37.8448 59.2332 37.8448H57.9515C57.5825 37.8448 57.2827 38.129 57.2827 38.478C57.2827 38.827 57.5829 39.1112 57.9515 39.1112H59.2332C61.5352 39.1112 63.6523 38.4264 65.1946 37.1829C66.741 35.9359 67.5927 34.2408 67.5927 32.41C67.5927 30.7517 69.0178 29.4024 70.7693 29.4024C72.5208 29.4024 73.9459 30.7517 73.9459 32.41C73.9459 34.3476 73.3501 36.1188 72.1747 37.6741C71.2204 38.937 69.8822 40.0682 68.1968 41.0362C65.2965 42.7025 62.3287 43.3135 62.2997 43.3193C62.125 43.3541 61.9747 43.4512 61.8773 43.5931C61.7795 43.7347 61.7461 43.9041 61.7829 44.0696C61.8476 44.3608 62.1229 44.5724 62.437 44.5724C62.4834 44.5724 62.53 44.5679 62.5754 44.5589C62.7041 44.5331 65.767 43.9092 68.8724 42.1297C70.7179 41.072 72.1924 39.8243 73.2554 38.4206Z" fill="white"/>
<path d="M68.685 38.4463C70.5117 36.6684 71.4377 34.4334 71.4377 31.8035C71.4377 31.4542 71.1376 31.1703 70.769 31.1703C70.4003 31.1703 70.1002 31.4545 70.1002 31.8035C70.1002 34.0921 69.3016 36.03 67.7263 37.5635C67.469 37.8138 67.4752 38.2154 67.7395 38.4589C67.8653 38.5744 68.0308 38.6383 68.2059 38.6383C68.3811 38.6383 68.5586 38.5702 68.6853 38.4467L68.685 38.4463Z" fill="white"/>
<path d="M66.5666 39.8476C66.6105 39.6837 66.5843 39.5134 66.493 39.3679C66.4017 39.2224 66.2558 39.1195 66.0828 39.0779C65.9097 39.0363 65.7295 39.0611 65.5762 39.1476C63.0925 40.5472 60.4569 40.8807 60.4314 40.8836C60.0655 40.9268 59.8049 41.2442 59.8508 41.5907C59.8927 41.9068 60.1776 42.1455 60.5142 42.1455C60.5421 42.1455 60.57 42.1439 60.5976 42.1406C60.7155 42.1268 63.5191 41.781 66.2606 40.2362C66.4143 40.1498 66.5229 40.0117 66.5669 39.8479L66.5666 39.8476Z" fill="white"/>
<path d="M78.889 43.3386C77.9064 43.6486 76.9259 43.6744 75.9747 43.4151C75.2773 43.2248 74.6072 42.889 73.9823 42.4171C73.2175 41.839 72.1453 41.8545 71.433 42.4542C69.2212 44.3163 65.5294 45.1346 65.493 45.1424C65.3189 45.1798 65.1704 45.2795 65.0753 45.4224C64.9803 45.5653 64.9496 45.7353 64.9891 45.9001C65.0586 46.1904 65.3267 46.393 65.6409 46.393C65.6909 46.393 65.741 46.3875 65.7894 46.3771C65.9536 46.3417 69.8426 45.4875 72.3218 43.4002C72.546 43.2115 72.8932 43.2141 73.1477 43.4064C73.9105 43.9831 74.737 44.3953 75.604 44.6318C76.8203 44.9634 78.0676 44.9324 79.3118 44.5398C79.6617 44.4295 79.8514 44.0702 79.7349 43.7389C79.6184 43.408 79.2389 43.228 78.889 43.3383V43.3386Z" fill="white"/>
<path d="M75.0249 45.8665C74.1905 45.2521 73.1221 45.0534 71.9348 45.2917C71.0841 45.4627 70.4582 45.8049 70.432 45.8194C70.2777 45.9046 70.1676 46.0417 70.1223 46.2052C70.077 46.3688 70.1015 46.5394 70.1915 46.6855C70.311 46.8794 70.5325 46.9997 70.7696 46.9997C70.8875 46.9997 71.004 46.97 71.1052 46.9139C71.1233 46.9039 72.9398 45.9356 74.2038 46.8661C74.3223 46.9536 74.4651 46.9997 74.6133 46.9997C74.6412 46.9997 74.6695 46.9981 74.6978 46.9945C74.8749 46.9736 75.033 46.8884 75.1427 46.7549C75.2524 46.6213 75.3005 46.4552 75.2783 46.2875C75.2562 46.1197 75.1662 45.9701 75.0252 45.8662L75.0249 45.8665Z" fill="white"/>
</g>
<path d="M119.365 25.5117L120.977 27.1133L119.365 28.7344L117.754 27.1133L119.365 25.5117ZM116.064 25.5117L117.695 27.1133L116.064 28.7344L114.473 27.1133L116.064 25.5117ZM123.203 29.4668L125.488 29.1934L125.684 31.8887C125.716 32.403 125.856 32.7806 126.104 33.0215C126.351 33.2559 126.751 33.373 127.305 33.373H127.529V36H127.305C126.562 36 125.944 35.8633 125.449 35.5898C124.961 35.3164 124.557 34.9258 124.238 34.418C123.652 34.9779 122.933 35.3815 122.08 35.6289C121.234 35.8763 120.117 36 118.73 36H117.1C115.954 36 114.909 35.9284 113.965 35.7852C113.021 35.6419 112.207 35.3945 111.523 35.043C110.84 34.6914 110.312 34.2064 109.941 33.5879C109.57 32.9629 109.385 32.1719 109.385 31.2148C109.385 30.6549 109.447 30.1113 109.57 29.584C109.701 29.0501 109.86 28.5521 110.049 28.0898L112.236 28.9199C112.126 29.2194 112.018 29.5645 111.914 29.9551C111.81 30.3392 111.758 30.7103 111.758 31.0684C111.758 31.5697 111.891 31.9733 112.158 32.2793C112.432 32.5853 112.809 32.8164 113.291 32.9727C113.779 33.1289 114.346 33.2363 114.99 33.2949C115.641 33.347 116.344 33.373 117.1 33.373H118.73C119.694 33.373 120.514 33.3307 121.191 33.2461C121.875 33.1615 122.396 32.9889 122.754 32.7285C123.118 32.4681 123.301 32.0742 123.301 31.5469C123.301 31.2279 123.291 30.8796 123.271 30.502C123.252 30.1178 123.229 29.7728 123.203 29.4668ZM136.045 22.2695L137.568 23.793L136.045 25.3164L134.521 23.793L136.045 22.2695ZM137.744 24.7598L139.268 26.2832L137.744 27.8066L136.221 26.2832L137.744 24.7598ZM134.346 24.7598L135.869 26.2832L134.346 27.8066L132.822 26.2832L134.346 24.7598ZM139.062 36C138.477 36 137.982 35.8796 137.578 35.6387C137.181 35.3913 136.849 35.0788 136.582 34.7012C136.243 35.0918 135.859 35.4076 135.43 35.6484C135.007 35.8828 134.515 36 133.955 36C133.278 36 132.718 35.8861 132.275 35.6582C131.839 35.4238 131.484 35.1113 131.211 34.7207C130.859 35.1178 130.439 35.4303 129.951 35.6582C129.463 35.8861 128.828 36 128.047 36H127.148V33.373H128.066C128.561 33.373 128.958 33.334 129.258 33.2559C129.557 33.1777 129.775 33.0215 129.912 32.7871C130.055 32.5462 130.127 32.1914 130.127 31.7227C130.127 31.6185 130.12 31.4557 130.107 31.2344C130.101 31.013 130.088 30.7689 130.068 30.502C130.049 30.2285 130.029 29.9681 130.01 29.7207L132.295 29.4375L132.5 31.9668C132.533 32.4225 132.666 32.7708 132.9 33.0117C133.141 33.2526 133.499 33.373 133.975 33.373C134.548 33.373 134.928 33.2493 135.117 33.002C135.312 32.748 135.41 32.3216 135.41 31.7227C135.41 31.625 135.404 31.4655 135.391 31.2441C135.384 31.0228 135.371 30.7754 135.352 30.502C135.332 30.2285 135.312 29.9681 135.293 29.7207L137.578 29.4375L137.783 31.9668C137.809 32.39 137.917 32.7318 138.105 32.9922C138.294 33.2461 138.61 33.373 139.053 33.373C139.326 33.373 139.544 33.3112 139.707 33.1875C139.87 33.0573 139.987 32.8685 140.059 32.6211C140.13 32.3737 140.166 32.0742 140.166 31.7227C140.166 31.4883 140.153 31.1693 140.127 30.7656C140.107 30.3555 140.081 29.9486 140.049 29.5449L142.334 29.2617L142.539 31.9668C142.572 32.4746 142.715 32.8359 142.969 33.0508C143.229 33.2656 143.617 33.373 144.131 33.373H144.424V36H144.15C143.532 36 142.992 35.8926 142.529 35.6777C142.074 35.4564 141.722 35.1536 141.475 34.7695C141.214 35.1276 140.889 35.4238 140.498 35.6582C140.114 35.8861 139.635 36 139.062 36ZM144.844 24.2715V22.875L152.686 19.6816V21.0879L144.844 24.2715ZM147.354 26.8887C147.855 27.2012 148.311 27.4941 148.721 27.7676C149.131 28.041 149.499 28.3112 149.824 28.5781C150.156 28.8385 150.452 29.1087 150.713 29.3887C150.973 29.6686 151.204 29.9681 151.406 30.2871C151.608 30.6061 151.787 30.9609 151.943 31.3516C152.145 31.8398 152.34 32.2337 152.529 32.5332C152.718 32.8262 152.956 33.041 153.242 33.1777C153.529 33.3079 153.906 33.373 154.375 33.373H154.648V36H154.375C153.607 36 152.956 35.8796 152.422 35.6387C151.895 35.3978 151.442 35.0007 151.064 34.4473C150.745 34.8249 150.387 35.1276 149.99 35.3555C149.6 35.5833 149.121 35.7493 148.555 35.8535C147.988 35.9512 147.279 36 146.426 36H144.043V33.373H146.416C147.139 33.373 147.734 33.3405 148.203 33.2754C148.678 33.2038 149.033 33.0801 149.268 32.9043C149.502 32.7285 149.619 32.4746 149.619 32.1426C149.619 31.9408 149.515 31.7194 149.307 31.4785C149.098 31.2376 148.825 30.987 148.486 30.7266C148.148 30.4661 147.777 30.2057 147.373 29.9453C146.976 29.6849 146.579 29.4277 146.182 29.1738C145.791 28.9199 145.439 28.679 145.127 28.4512C144.873 28.2493 144.678 27.9954 144.541 27.6895C144.404 27.377 144.336 27.0579 144.336 26.7324C144.336 26.3809 144.417 26.0618 144.58 25.7754C144.749 25.4824 145.007 25.2676 145.352 25.1309L152.793 22.0938V24.6816L147.354 26.8887ZM155.82 36H154.258V33.373H155.82C156.348 33.373 156.706 33.2135 156.895 32.8945C157.09 32.5755 157.188 32.1686 157.188 31.6738C157.188 31.2376 157.135 30.7624 157.031 30.248C156.934 29.7272 156.833 29.2161 156.729 28.7148L159.121 28.0996C159.245 28.6921 159.342 29.2812 159.414 29.8672C159.486 30.4466 159.521 31 159.521 31.5273C159.521 32.3802 159.408 33.1452 159.18 33.8223C158.952 34.4928 158.568 35.0234 158.027 35.4141C157.487 35.8047 156.751 36 155.82 36ZM156.973 23.5L158.662 25.1895L156.973 26.8789L155.283 25.1895L156.973 23.5ZM164.16 22.3574V35.9902H161.719V22.3574H164.16ZM178.418 36C178.105 36 177.816 35.9642 177.549 35.8926C177.282 35.821 177.061 35.7298 176.885 35.6191C176.729 36.5892 176.406 37.4616 175.918 38.2363C175.43 39.0111 174.775 39.6589 173.955 40.1797C173.141 40.707 172.161 41.0846 171.016 41.3125L170.117 38.9102C171.081 38.6953 171.898 38.4089 172.568 38.0508C173.245 37.6992 173.76 37.2337 174.111 36.6543C174.463 36.0749 174.639 35.3522 174.639 34.4863C174.639 33.9004 174.551 33.2493 174.375 32.5332C174.206 31.8171 174.014 31.1432 173.799 30.5117L176.221 29.7109L176.787 31.8887C176.904 32.3379 177.077 32.6992 177.305 32.9727C177.539 33.2396 177.874 33.373 178.311 33.373H178.691V36H178.418ZM178.291 33.373H179.004V36H178.291V33.373ZM180.977 21.4004L182.5 22.9238L180.977 24.4473L179.453 22.9238L180.977 21.4004ZM182.676 23.8906L184.199 25.4141L182.676 26.9375L181.152 25.4141L182.676 23.8906ZM179.277 23.8906L180.801 25.4141L179.277 26.9375L177.754 25.4141L179.277 23.8906ZM180.293 36H178.73V33.373H180.293C180.82 33.373 181.178 33.2135 181.367 32.8945C181.562 32.5755 181.66 32.1686 181.66 31.6738C181.66 31.2376 181.608 30.7624 181.504 30.248C181.406 29.7272 181.305 29.2161 181.201 28.7148L183.594 28.0996C183.717 28.6921 183.815 29.2812 183.887 29.8672C183.958 30.4466 183.994 31 183.994 31.5273C183.994 32.3802 183.88 33.1452 183.652 33.8223C183.424 34.4928 183.04 35.0234 182.5 35.4141C181.96 35.8047 181.224 36 180.293 36ZM188.633 22.3574V35.9902H186.191V22.3574H188.633Z" fill="#464646"/>
<defs>
<filter id="filter0_d_431_179" x="0" y="0" width="214" height="102" filterUnits="userSpaceOnUse" color-interpolation-filters="sRGB">
<feFlood flood-opacity="0" result="BackgroundImageFix"/>
<feColorMatrix in="SourceAlpha" type="matrix" values="0 0 0 0 0 0 0 0 0 0 0 0 0 0 0 0 0 0 127 0" result="hardAlpha"/>
<feOffset dx="-20" dy="20"/>
<feGaussianBlur stdDeviation="10"/>
<feComposite in2="hardAlpha" operator="out"/>
<feColorMatrix type="matrix" values="0 0 0 0 0.796078 0 0 0 0 0.839216 0 0 0 0 0.964706 0 0 0 0.7 0"/>
<feBlend mode="normal" in2="BackgroundImageFix" result="effect1_dropShadow_431_179"/>
<feBlend mode="normal" in="SourceGraphic" in2="effect1_dropShadow_431_179" result="shape"/>
</filter>
<clipPath id="clip0_431_179">
<rect width="29" height="31" fill="white" transform="translate(56 16)"/>
</clipPath>
</defs>
</svg>
