<svg width="1500" height="357" viewBox="0 0 1500 357" fill="none" xmlns="http://www.w3.org/2000/svg">
<mask id="mask0_311_452" style="mask-type:alpha" maskUnits="userSpaceOnUse" x="0" y="0" width="1500" height="357">
<rect width="1500" height="357" rx="30" fill="#F5F7F9" fill-opacity="0.5"/>
</mask>
<g mask="url(#mask0_311_452)">
<path d="M-79.6726 -208.42C-10.0944 -211.151 41.9853 -192.166 93.8309 -146.297L96.1822 -144.198C145.543 -99.7497 194.94 -30.8488 259.361 66.8633L259.362 66.864L265.745 76.5646L265.746 76.5653C344.205 196.128 427.575 275.001 523.681 326.71L525.936 327.917C621.501 378.807 729.747 403.097 858.403 413.877L862.358 414.203L862.359 414.202C1029.36 427.651 1148.04 398.506 1244.71 371.055L1244.78 371.296L1244.78 371.296L1244.71 371.055C1342.05 343.411 1417.43 317.331 1497.23 338.662L1498.19 338.921L1497.93 339.889L1497.9 340.005L1497.9 340.005L1497.87 340.126L1497.61 341.095L1496.64 340.837C1420.06 320.364 1347.61 343.933 1254.41 370.628L1245.32 373.22C1148.55 400.702 1029.57 429.926 862.178 416.445L862.176 416.445L858.217 416.119L858.215 416.119C729.394 405.325 620.813 380.991 524.879 329.904L522.615 328.692C426.115 276.772 342.484 197.607 263.865 77.8L257.482 68.1001C193.04 -29.6435 143.79 -98.2999 94.6789 -142.524L92.3408 -144.611C40.9228 -190.102 -10.5936 -208.88 -79.5842 -206.172L-80.5841 -206.133L-80.6235 -207.132L-80.6332 -207.382L-80.6711 -208.381L-79.6726 -208.42ZM-79.5228 -213.324C-11.0593 -215.686 41.0619 -198.365 93.2177 -154.659L95.6588 -152.594C146.923 -108.829 198.464 -39.4807 265.933 61.6878L266.388 62.3693L266.387 62.37C342.876 177.06 426.133 253.555 522.532 303.308L522.367 303.625L522.368 303.625L522.532 303.308C619.133 353.165 729.015 376.212 858.671 383.845L858.671 383.845L862.629 384.069L866.535 384.277C1031.55 392.739 1149.16 360.847 1245.09 331.171L1245.19 331.512L1245.19 331.512L1245.09 331.171C1342.45 301.053 1417.84 273.048 1497.65 292.316L1498.63 292.551L1498.39 293.525L1498.35 293.698L1498.35 293.698L1498.31 293.867L1498.07 294.843L1497.1 294.608C1420.54 276.124 1348.09 301.532 1254.87 330.6L1245.79 333.423C1148.99 363.367 1029.97 395.617 862.499 386.422L862.497 386.422L858.537 386.199L858.535 386.198C729.701 378.613 620.17 355.823 523.726 306.57L521.45 305.402C424.442 255.335 340.763 178.333 263.971 62.995L257.594 53.458L251.504 44.3989C190.033 -46.7815 141.871 -110.067 94.0554 -150.865L91.7041 -152.853C40.0085 -196.173 -11.5401 -213.309 -79.4413 -210.966L-80.4405 -210.932L-80.475 -211.931L-80.4875 -212.288L-80.522 -213.288L-79.5228 -213.324ZM-79.5173 -218.373C-12.1716 -220.366 39.9893 -204.712 92.4734 -163.19L94.9303 -161.228C146.513 -119.634 198.617 -52.9642 266.067 46.4359L266.068 46.4366L266.122 46.5167C340.888 157.237 424.307 231.835 521.363 279.849L523.641 280.97C620.164 328.203 730.234 349.37 858.791 353.666L858.792 353.665L862.752 353.791L862.751 353.791C1029.81 358.759 1148.55 323.582 1245.29 291.178L1254.36 288.128C1347.41 256.72 1420.67 229.078 1498.08 245.675L1499.06 245.885L1498.85 246.864L1498.8 247.091L1498.79 247.091L1498.75 247.312L1498.54 248.296L1497.56 248.085C1420.95 231.659 1348.45 258.977 1255.16 290.456L1246.07 293.515C1149.22 325.957 1030.16 361.234 862.676 356.254L862.674 356.254L858.713 356.129L858.711 356.129C729.938 351.827 619.494 330.619 522.558 283.184L520.271 282.059C422.774 233.827 339.046 158.913 264.08 47.8971L260.879 43.1863C194.954 -53.6511 143.85 -118.617 93.3862 -159.308L90.9452 -161.257C38.953 -202.39 -12.629 -217.888 -79.4441 -215.91L-80.4433 -215.881L-80.473 -216.88L-80.4868 -217.344L-80.5172 -218.344L-79.5173 -218.373ZM-79.6595 -223.277C-13.4356 -224.901 38.8013 -210.949 91.6136 -171.613L94.0864 -169.753C146.002 -130.319 198.646 -66.2615 265.96 31.5591L265.961 31.5605L266.014 31.6364C338.932 137.861 422.338 210.324 519.897 256.5L522.187 257.577C619.217 302.992 730.292 322.618 859.054 323.635L863.014 323.658L866.922 323.667C1031.99 323.753 1149.63 285.849 1245.61 251.24L1254.68 247.957C1299.74 231.598 1340.15 216.252 1378.58 206.437L1378.72 206.99L1378.72 206.99L1378.58 206.437C1419.6 195.959 1458.47 191.752 1498.5 199.328L1499.48 199.514L1499.3 200.497L1499.19 201.059L1499 202.042L1498.02 201.856C1459.1 194.489 1421.22 198.379 1381.13 208.443L1379.22 208.928C1340.93 218.706 1300.68 233.992 1255.57 250.371L1246.48 253.66C1149.63 288.582 1030.56 326.922 863.004 326.229L863.002 326.229L859.039 326.206L859.036 326.206C730.031 325.187 618.562 305.525 521.097 259.907L518.798 258.824C420.776 212.429 337.034 139.64 263.894 33.0921L260.7 28.4593C194.887 -66.7941 143.261 -129.184 92.4948 -167.733L90.0779 -169.551C37.7896 -208.497 -13.8636 -222.317 -79.596 -220.705L-80.5966 -220.681L-80.62 -221.681L-80.6339 -222.253L-80.658 -223.252L-79.6595 -223.277ZM-79.6526 -228.325C-14.4814 -229.506 37.7565 -217.259 90.8596 -180.146L93.3469 -178.391C145.574 -141.145 198.777 -79.7513 266.197 16.4606L266.199 16.464C337.268 118.339 420.698 188.704 518.724 233.043L518.443 233.661L518.444 233.661L518.724 233.043C616.763 277.388 729.479 295.736 859.168 293.459L863.131 293.381L863.13 293.381C1030.31 289.797 1149.09 248.556 1245.84 211.251L1254.91 207.741C1299.98 190.255 1340.4 173.907 1378.83 163.149L1380.75 162.614C1421.07 151.505 1459.35 146.617 1498.77 153.132L1499.76 153.295L1499.6 154.282L1499.54 154.614L1499.54 154.614L1499.49 154.948L1499.33 155.938L1498.34 155.774C1459.43 149.344 1421.56 154.15 1381.46 165.197L1379.55 165.727C1341.27 176.444 1301.01 192.727 1255.89 210.235L1246.8 213.751C1149.94 251.098 1030.83 292.465 863.186 296.058L863.184 296.059L859.219 296.136L859.217 296.136C730.27 298.401 617.887 280.321 519.931 236.522L517.62 235.483C419.109 190.924 335.317 120.224 264.001 17.9956C196.614 -78.1703 143.626 -139.243 91.7925 -176.208L89.3252 -177.95C37.5974 -214.102 -13.2618 -226.435 -76.5797 -225.692L-79.6043 -225.647L-80.6042 -225.629L-80.6221 -226.629L-80.6345 -227.307L-80.6525 -228.307L-79.6526 -228.325ZM-79.645 -233.376C-15.602 -234.188 36.6725 -223.606 90.0834 -188.665L92.5465 -187.037C144.27 -152.496 197.154 -95.0128 263.037 -3.04426L263.037 -3.04357L266.234 1.43109L266.237 1.43316C404.619 196.402 599.995 274.585 859.427 263.428L863.387 263.25L867.296 263.062C1032.42 254.772 1150.16 210.86 1246.23 171.353L1255.32 167.606C1300.41 148.949 1340.87 131.542 1379.32 119.778L1381.25 119.194C1421.59 107.031 1459.9 101.14 1499.34 106.637L1500.33 106.775L1500.19 107.767L1500.13 108.156L1500.13 108.156L1500.08 108.543L1499.94 109.534L1498.95 109.396C1460.06 103.974 1422.17 109.767 1382.05 121.862L1380.14 122.443C1341.83 134.16 1301.54 151.495 1256.39 170.175L1247.29 173.929C1150.35 213.792 1031.17 258.224 863.517 266.033L863.515 266.033L859.55 266.211L859.549 266.211C600.4 277.356 404.542 199.557 265.597 5.33744L263.965 3.04763L260.772 -1.42427C194.945 -93.3154 142.296 -150.463 91.0004 -184.719L88.5594 -186.333C36.5564 -220.353 -14.3429 -231.063 -76.635 -230.62L-79.6105 -230.59L-80.6104 -230.578L-80.6228 -231.578L-80.6325 -232.364L-80.6449 -233.364L-79.645 -233.376ZM-79.6381 -238.425C-16.7263 -238.868 35.5856 -229.951 89.3218 -197.2L91.8387 -195.65C144.72 -162.713 199.05 -106.585 266.419 -13.7434L266.609 -13.481L266.609 -13.4803C400.935 172.519 600.054 251.075 859.163 233.279L859.536 233.253L863.499 232.975L863.499 232.976C1030.74 220.913 1149.58 173.569 1246.41 131.274L1255.49 127.294C1300.58 107.484 1341.04 89.0461 1379.51 76.307L1381.43 75.6752C1421.79 62.4892 1460.12 55.6304 1499.6 60.1458L1500.6 60.2597L1500.48 61.2541L1500.43 61.6953L1500.43 61.6953L1500.38 62.1393L1500.27 63.1337L1499.27 63.0205C1460.35 58.5692 1422.46 65.3118 1382.33 78.4235L1380.42 79.0533C1342.1 91.7411 1301.82 110.103 1256.66 129.939L1247.56 133.924C1150.28 176.418 1030.59 224.096 861.924 235.985L861.928 235.989L859.736 236.139C599.55 254.099 399.172 175.205 264.075 -12.0481C196.78 -104.786 142.714 -160.554 90.3092 -193.194L87.815 -194.731C34.687 -227.111 -17.0385 -235.973 -79.6174 -235.532L-80.6166 -235.524L-80.6242 -236.523L-80.6311 -237.417L-80.6394 -238.418L-79.6381 -238.425ZM-79.48 -243.329L-76.588 -243.323C-15.9955 -243.099 35.5968 -235.638 88.8121 -205.557L91.3057 -204.131C143.693 -173.85 197.683 -121.534 263.555 -32.8008L263.556 -32.7994L266.75 -28.4808L266.75 -28.4794C397.299 148.664 600.252 227.731 859.789 203.225L863.754 202.845L863.754 202.846C1031.06 186.509 1149.93 136.15 1246.78 91.3952L1255.86 87.1857C1300.97 66.231 1341.43 46.7644 1379.9 33.0437L1381.82 32.3621C1422.18 18.1465 1460.52 10.3034 1500.01 13.7999L1501.01 13.8876L1500.92 14.884L1500.88 15.3826L1500.83 15.8791L1500.75 16.8762L1499.75 16.7878C1460.84 13.3428 1422.95 21.0555 1382.82 35.1912L1380.91 35.8694C1342.59 49.5344 1302.3 68.9197 1257.14 89.9023L1248.04 94.1194C1151.08 138.924 1031.85 189.445 864.044 205.831L864.042 205.832L860.074 206.212L860.072 206.212C599.718 230.796 395.636 151.465 264.336 -26.6985L261.143 -31.015C195.375 -119.609 141.676 -171.55 89.8037 -201.534L87.3351 -202.945C33.906 -233.146 -17.8934 -240.33 -79.48 -240.329L-80.4799 -240.329L-80.4799 -243.329L-79.48 -243.329Z" fill="url(#paint0_linear_311_452)" fill-opacity="0.5"/>
</g>
<defs>
<linearGradient id="paint0_linear_311_452" x1="587.217" y1="-387.005" x2="830.669" y2="519.757" gradientUnits="userSpaceOnUse">
<stop stop-color="white" stop-opacity="0.1"/>
<stop offset="0.1751" stop-color="#FAFFFF" stop-opacity="0.2576"/>
<stop offset="0.3812" stop-color="#ECF5FF" stop-opacity="0.4431"/>
<stop offset="0.603" stop-color="white" stop-opacity="0.6427"/>
<stop offset="0.8341" stop-color="white" stop-opacity="0.8507"/>
<stop offset="1" stop-color="white"/>
</linearGradient>
</defs>
</svg>
